<svg width="16" height="16" viewBox="0 0 16 16" fill="none" xmlns="http://www.w3.org/2000/svg">
<path d="M12 14.4056H1.5V3.90561H8.25V2.40561H1.5C0.675 2.40561 0 3.08061 0 3.90561V14.4056C0 15.2306 0.675 15.9056 1.5 15.9056H12C12.825 15.9056 13.5 15.2306 13.5 14.4056V7.65561H12V14.4056ZM6.1575 12.0281L4.6875 10.2581L2.625 12.9056H10.875L8.22 9.37311L6.1575 12.0281ZM13.5 2.40561V0.155609H12V2.40561H9.75C9.7575 2.41311 9.75 3.90561 9.75 3.90561H12V6.14811C12.0075 6.15561 13.5 6.14811 13.5 6.14811V3.90561H15.75V2.40561H13.5Z" fill="#828282"/>
</svg>
