<svg width="20" height="20" viewBox="0 0 20 20" fill="none" xmlns="http://www.w3.org/2000/svg">
<path d="M16.8416 6.51668L10.4249 10.2333C10.1666 10.3833 9.8416 10.3833 9.57493 10.2333L3.15827 6.51668C2.69993 6.25001 2.58327 5.62501 2.93327 5.23335C3.17493 4.95835 3.44993 4.73335 3.7416 4.57501L8.25827 2.07501C9.22493 1.53335 10.7916 1.53335 11.7583 2.07501L16.2749 4.57501C16.5666 4.73335 16.8416 4.96668 17.0833 5.23335C17.4166 5.62501 17.2999 6.25001 16.8416 6.51668Z" fill="white"/>
<path d="M9.52507 11.7833V17.4667C9.52507 18.1 8.8834 18.5167 8.31673 18.2417C6.60006 17.4 3.7084 15.825 3.7084 15.825C2.69173 15.25 1.8584 13.8 1.8584 12.6083V8.30835C1.8584 7.65001 2.55007 7.23334 3.11673 7.55834L9.1084 11.0333C9.3584 11.1917 9.52507 11.475 9.52507 11.7833Z" fill="white"/>
<path d="M10.4751 11.7833V17.4667C10.4751 18.1 11.1168 18.5167 11.6834 18.2417C13.4001 17.4 16.2918 15.825 16.2918 15.825C17.3084 15.25 18.1418 13.8 18.1418 12.6083V8.30835C18.1418 7.65001 17.4501 7.23334 16.8834 7.55834L10.8918 11.0333C10.6418 11.1917 10.4751 11.475 10.4751 11.7833Z" fill="white"/>
</svg>
