<svg width="20" height="21" viewBox="0 0 20 21" fill="none" xmlns="http://www.w3.org/2000/svg">
<path d="M9.99993 14.0139C8.00827 14.0139 6.3916 12.3973 6.3916 10.4056C6.3916 8.41394 8.00827 6.79727 9.99993 6.79727C11.9916 6.79727 13.6083 8.41394 13.6083 10.4056C13.6083 12.3973 11.9916 14.0139 9.99993 14.0139ZM9.99993 8.04727C8.69993 8.04727 7.6416 9.1056 7.6416 10.4056C7.6416 11.7056 8.69993 12.7639 9.99993 12.7639C11.2999 12.7639 12.3583 11.7056 12.3583 10.4056C12.3583 9.1056 11.2999 8.04727 9.99993 8.04727Z" fill="#83899F"/>
<path d="M10.0001 17.9223C6.86681 17.9223 3.90848 16.0889 1.87515 12.9056C0.991813 11.5306 0.991813 9.28895 1.87515 7.90561C3.91681 4.72228 6.87515 2.88895 10.0001 2.88895C13.1251 2.88895 16.0835 4.72228 18.1168 7.90561C19.0001 9.28061 19.0001 11.5223 18.1168 12.9056C16.0835 16.0889 13.1251 17.9223 10.0001 17.9223ZM10.0001 4.13895C7.30848 4.13895 4.73348 5.75561 2.93348 8.58061C2.30848 9.55561 2.30848 11.2556 2.93348 12.2306C4.73348 15.0556 7.30848 16.6723 10.0001 16.6723C12.6918 16.6723 15.2668 15.0556 17.0668 12.2306C17.6918 11.2556 17.6918 9.55561 17.0668 8.58061C15.2668 5.75561 12.6918 4.13895 10.0001 4.13895Z" fill="#83899F"/>
</svg>
