<svg width="18" height="18" viewBox="0 0 18 18" fill="none" xmlns="http://www.w3.org/2000/svg">
<path d="M9.00008 0.666687C4.40841 0.666687 0.666748 4.40835 0.666748 9.00002C0.666748 13.5917 4.40841 17.3334 9.00008 17.3334C13.5917 17.3334 17.3334 13.5917 17.3334 9.00002C17.3334 4.40835 13.5917 0.666687 9.00008 0.666687ZM8.37508 5.66669C8.37508 5.32502 8.65842 5.04169 9.00008 5.04169C9.34175 5.04169 9.62508 5.32502 9.62508 5.66669V9.83335C9.62508 10.175 9.34175 10.4584 9.00008 10.4584C8.65842 10.4584 8.37508 10.175 8.37508 9.83335V5.66669ZM9.76675 12.65C9.72508 12.7584 9.66675 12.8417 9.59175 12.925C9.50842 13 9.41675 13.0584 9.31675 13.1C9.21675 13.1417 9.10842 13.1667 9.00008 13.1667C8.89175 13.1667 8.78342 13.1417 8.68342 13.1C8.58341 13.0584 8.49175 13 8.40842 12.925C8.33342 12.8417 8.27508 12.7584 8.23342 12.65C8.19175 12.55 8.16675 12.4417 8.16675 12.3334C8.16675 12.225 8.19175 12.1167 8.23342 12.0167C8.27508 11.9167 8.33342 11.825 8.40842 11.7417C8.49175 11.6667 8.58341 11.6084 8.68342 11.5667C8.88342 11.4834 9.11675 11.4834 9.31675 11.5667C9.41675 11.6084 9.50842 11.6667 9.59175 11.7417C9.66675 11.825 9.72508 11.9167 9.76675 12.0167C9.80842 12.1167 9.83342 12.225 9.83342 12.3334C9.83342 12.4417 9.80842 12.55 9.76675 12.65Z" fill="white"/>
</svg>
