<svg width="29" height="29" viewBox="0 0 29 29" fill="none" xmlns="http://www.w3.org/2000/svg">
<path opacity="0.4" d="M25.7699 12.8828L24.6266 17.7595C23.6466 21.9711 21.7099 23.6745 18.0699 23.3245C17.4866 23.2778 16.8566 23.1728 16.1799 23.0095L14.2199 22.5428C9.35488 21.3878 7.84988 18.9845 8.99322 14.1078L10.1366 9.21947C10.3699 8.2278 10.6499 7.36447 10.9999 6.6528C12.3649 3.82947 14.6866 3.07114 18.5832 3.9928L20.5316 4.4478C25.4199 5.59114 26.9132 8.00614 25.7699 12.8828Z" fill="#F8B602"/>
<path d="M18.0699 23.3245C17.3466 23.8145 16.4366 24.2228 15.3282 24.5845L13.4849 25.1911C8.85324 26.6845 6.41491 25.4361 4.90991 20.8045L3.41658 16.1961C1.92324 11.5645 3.15991 9.11447 7.79158 7.62114L9.63491 7.01447C10.1132 6.86281 10.5682 6.73447 10.9999 6.65281C10.6499 7.36447 10.3699 8.22781 10.1366 9.21947L8.99324 14.1078C7.84991 18.9845 9.35491 21.3878 14.2199 22.5428L16.1799 23.0095C16.8566 23.1728 17.4866 23.2778 18.0699 23.3245Z" fill="#F8B602"/>
<path d="M20.9051 12.9645C20.8351 12.9645 20.7651 12.9528 20.6834 12.9411L15.0251 11.5061C14.5584 11.3895 14.2784 10.9111 14.3951 10.4445C14.5118 9.9778 14.9901 9.6978 15.4568 9.81447L21.1151 11.2495C21.5818 11.3661 21.8618 11.8445 21.7451 12.3111C21.6518 12.6961 21.2901 12.9645 20.9051 12.9645Z" fill="#F8B602"/>
<path d="M17.4867 16.9078C17.4167 16.9078 17.3467 16.8961 17.2651 16.8845L13.8701 16.0211C13.4034 15.9045 13.1234 15.4261 13.2401 14.9595C13.3567 14.4928 13.8351 14.2128 14.3017 14.3295L17.6967 15.1928C18.1634 15.3095 18.4434 15.7878 18.3267 16.2545C18.2334 16.6511 17.8834 16.9078 17.4867 16.9078Z" fill="#F8B602"/>
</svg>
