<svg width="20" height="20" viewBox="0 0 20 20" fill="none" xmlns="http://www.w3.org/2000/svg">
<path d="M9.94766 9.18121C9.6282 9.18121 9.36328 8.91629 9.36328 8.59683V6.00221C9.36328 5.68275 9.6282 5.41783 9.94766 5.41783C10.2671 5.41783 10.532 5.68275 10.532 6.00221V8.59683C10.532 8.92408 10.2671 9.18121 9.94766 9.18121Z" fill="#A1A5B7"/>
<path d="M9.96318 16.8404C7.95293 16.8404 5.95047 16.521 4.04151 15.882C3.33247 15.6483 2.79485 15.1418 2.5611 14.5029C2.32735 13.864 2.40526 13.1316 2.78706 12.4927L3.7766 10.8408C3.99476 10.4746 4.18956 9.78896 4.18956 9.36042V7.72417C4.18956 4.53738 6.77639 1.95054 9.96318 1.95054C13.15 1.95054 15.7368 4.53738 15.7368 7.72417V9.36042C15.7368 9.78117 15.9316 10.4746 16.1498 10.8408L17.1393 12.4927C17.5055 13.1004 17.5678 13.825 17.3263 14.4873C17.0848 15.1496 16.5549 15.6561 15.8848 15.882C13.9759 16.5288 11.9734 16.8404 9.96318 16.8404ZM9.96318 3.12708C7.4231 3.12708 5.35831 5.19188 5.35831 7.73196V9.36821C5.35831 9.99933 5.10897 10.911 4.78172 11.4486L3.79218 13.1082C3.5896 13.4433 3.54285 13.8017 3.65972 14.1133C3.7766 14.425 4.04151 14.6587 4.41551 14.7834C7.99968 15.9755 11.9423 15.9755 15.5264 14.7834C15.8615 14.6743 16.1186 14.425 16.2355 14.0978C16.3601 13.7705 16.3212 13.4121 16.142 13.1082L15.1524 11.4564C14.8252 10.9188 14.5758 10.0071 14.5758 9.376V7.73975C14.5681 5.19188 12.5033 3.12708 9.96318 3.12708Z" fill="#A1A5B7"/>
<path d="M9.94755 18.8273C9.11385 18.8273 8.29572 18.4845 7.70355 17.8923C7.11139 17.3001 6.76855 16.482 6.76855 15.6483H7.9373C7.9373 16.1781 8.15547 16.6924 8.52947 17.0664C8.90347 17.4404 9.41772 17.6585 9.94755 17.6585C11.054 17.6585 11.9578 16.7547 11.9578 15.6483H13.1266C13.1266 17.4014 11.7007 18.8273 9.94755 18.8273Z" fill="#A1A5B7"/>
</svg>
