<svg width="19" height="20" viewBox="0 0 19 20" fill="none" xmlns="http://www.w3.org/2000/svg">
<path d="M9.25794 17.9313C4.85565 17.9313 1.27148 14.3471 1.27148 9.94479C1.27148 5.5425 4.85565 1.95833 9.25794 1.95833C13.6602 1.95833 17.2444 5.5425 17.2444 9.94479C17.2444 14.3471 13.6602 17.9313 9.25794 17.9313ZM9.25794 3.12708C5.49457 3.12708 2.44023 6.18921 2.44023 9.94479C2.44023 13.7004 5.49457 16.7625 9.25794 16.7625C13.0213 16.7625 16.0757 13.7004 16.0757 9.94479C16.0757 6.18921 13.0213 3.12708 9.25794 3.12708Z" fill="#A1A5B7"/>
<path d="M17.4393 18.7104C17.2913 18.7104 17.1433 18.6559 17.0264 18.539L15.4681 16.9807C15.2421 16.7547 15.2421 16.3807 15.4681 16.1547C15.694 15.9288 16.068 15.9288 16.294 16.1547L17.8523 17.7131C18.0783 17.939 18.0783 18.313 17.8523 18.539C17.7354 18.6559 17.5874 18.7104 17.4393 18.7104Z" fill="#A1A5B7"/>
</svg>
