<svg width="20" height="20" viewBox="0 0 20 20" fill="none" xmlns="http://www.w3.org/2000/svg">
<path d="M13.8434 17.5417H6.05174C5.73228 17.5417 5.46737 17.2767 5.46737 16.9573C5.46737 16.6378 5.73228 16.3729 6.05174 16.3729H13.8434C16.0718 16.3729 17.1549 15.2899 17.1549 13.0615V7.60729C17.1549 5.37888 16.0718 4.29583 13.8434 4.29583H6.05174C3.82332 4.29583 2.74028 5.37888 2.74028 7.60729C2.74028 7.92675 2.47537 8.19167 2.15591 8.19167C1.83645 8.19167 1.57153 7.92675 1.57153 7.60729C1.57153 4.76333 3.20778 3.12708 6.05174 3.12708H13.8434C16.6874 3.12708 18.3236 4.76333 18.3236 7.60729V13.0615C18.3236 15.9054 16.6874 17.5417 13.8434 17.5417Z" fill="#A1A5B7"/>
<path d="M9.94765 11.0122C9.29315 11.0122 8.63086 10.8096 8.1244 10.3967L5.68561 8.44877C5.43627 8.24619 5.38953 7.87998 5.59211 7.63064C5.79469 7.38131 6.16089 7.33456 6.41023 7.53715L8.84902 9.48506C9.44119 9.96035 10.4463 9.96035 11.0385 9.48506L13.4773 7.53715C13.7266 7.33456 14.1006 7.37352 14.2954 7.63064C14.498 7.87998 14.459 8.25398 14.2019 8.44877L11.7631 10.3967C11.2644 10.8096 10.6022 11.0122 9.94765 11.0122Z" fill="#A1A5B7"/>
<path d="M6.83091 14.425H2.15591C1.83645 14.425 1.57153 14.1601 1.57153 13.8406C1.57153 13.5212 1.83645 13.2563 2.15591 13.2563H6.83091C7.15037 13.2563 7.41528 13.5212 7.41528 13.8406C7.41528 14.1601 7.15037 14.425 6.83091 14.425Z" fill="#A1A5B7"/>
<path d="M4.49341 11.3083H2.15591C1.83645 11.3083 1.57153 11.0434 1.57153 10.724C1.57153 10.4045 1.83645 10.1396 2.15591 10.1396H4.49341C4.81287 10.1396 5.07778 10.4045 5.07778 10.724C5.07778 11.0434 4.81287 11.3083 4.49341 11.3083Z" fill="#A1A5B7"/>
</svg>
